<?xml version="1.0" encoding="utf-8"?>
<!-- Generator: Adobe Illustrator 21.0.0, SVG Export Plug-In . SVG Version: 6.00 Build 0)  -->
<svg version="1.1" id="Layer_1" xmlns="http://www.w3.org/2000/svg" xmlns:xlink="http://www.w3.org/1999/xlink" x="0px" y="0px"
	 viewBox="0 0 205.3 18.5" style="enable-background:new 0 0 205.3 18.5;" xml:space="preserve">
<style type="text/css">
	.st0{fill:#A8D3B9;}
</style>
<g id="background">
</g>
<g id="objects">
	<g>
		<path class="st0" d="M12.8,9.2c6-5.6,14.9-4.1,20.3,3.7c2.8-3.3,6.4-5.3,10.6-6c0.8-0.1,1.1-0.7,1.4-1.2c2.8-3.6,6.5-5.2,10.9-5.5
			c6.6-0.5,12.6,1.5,18,5.1c2,1.3,4,2.7,6,4c3.5,2.2,7.3,2.9,11.4,1.6c0.7-0.2,1.4-0.7,2.4,0.2c-2,1.8-4.4,2.2-6.8,2.3
			c-2.7,0.2-5.3-0.8-7.5-2.3c-2.2-1.4-4.3-3-6.4-4.4c-5.6-3.8-11.6-5.8-18.4-4.6c-2.9,0.5-5.5,1.9-7.6,4.4c1.1,0.3,1.9,0.4,2.8,0.7
			c1.6,0.5,3.1,1.2,4.4,2.5c1.5,1.5,2.6,3.2,1.7,5.4c-0.9,2.3-2.8,3.3-5.2,3.5c-4.9,0.3-8.2-3.6-7.6-9.3c-3.7,1.1-7,2.6-9,6
			c-0.3,0.6-0.5,1.4-1.4,1.3c-0.9-0.1-0.8-0.9-1-1.5C29.5,9,21.7,5.9,15.9,9c-1.3,0.7-2.4,1.5-2.1,3.3c0.1,0.5,0,1.1-0.7,1.1
			s-0.8-0.6-0.9-1.1C11,7.8,5.5,6.3,1.8,9.4C1.4,9.8,1,10.7,0.3,10.1c-0.8-0.7,0-1.4,0.5-2C3.1,5.6,8.5,5.5,11.4,8
			C11.9,8.3,12.3,8.7,12.8,9.2z M50.8,16.9c1.7,0,3.2-0.5,3.8-2.2c0.6-1.6-0.2-2.9-1.5-3.9c-1.8-1.4-3.8-2.1-6.1-2.1
			c-0.9,0-1.4,0.3-1.6,1.2C44.6,13.6,47.2,16.9,50.8,16.9z"/>
		<path class="st0" d="M98.3,10.9c0-2.5,1.8-4.2,4.4-4.1c2.4,0,4.3,1.8,4.3,4.1c0,2.2-2.1,4.1-4.4,4.1
			C100.1,14.9,98.3,13.1,98.3,10.9z"/>
		<path class="st0" d="M193.8,7.9c2.9-2.5,8.3-2.4,10.6,0.1c0.5,0.6,1.3,1.2,0.5,2c-0.7,0.7-1.1-0.3-1.5-0.7
			c-3.6-3.1-9.1-1.6-10.4,3c-0.1,0.5-0.2,1.1-0.9,1.1s-0.8-0.6-0.7-1.1c0.4-1.8-0.8-2.6-2.1-3.3c-5.8-3.1-13.6-0.1-15.9,6.1
			c-0.2,0.6-0.1,1.4-1,1.5c-1,0.1-1.1-0.7-1.4-1.3c-2-3.4-5.2-4.9-9-6c0.6,5.6-2.7,9.5-7.6,9.3c-2.4-0.1-4.3-1.1-5.2-3.5
			c-0.8-2.2,0.2-3.9,1.7-5.4c1.2-1.2,2.7-2,4.4-2.5c0.8-0.2,1.7-0.4,2.8-0.7c-2.1-2.5-4.6-3.9-7.6-4.4c-6.8-1.3-12.8,0.8-18.4,4.6
			c-2.1,1.5-4.2,3-6.4,4.4c-2.3,1.5-4.8,2.4-7.5,2.3c-2.4-0.2-4.8-0.6-6.8-2.3c1-0.9,1.8-0.4,2.4-0.2c4.1,1.3,7.8,0.6,11.4-1.6
			c2-1.3,4-2.7,6-4c5.5-3.6,11.4-5.6,18-5.1c4.4,0.3,8.2,2,10.9,5.5c0.4,0.5,0.7,1,1.4,1.2c4.2,0.7,7.8,2.7,10.6,6
			c5.4-7.7,14.3-9.3,20.3-3.7C193,8.7,193.4,8.3,193.8,7.9z M159.9,10c-0.2-0.9-0.7-1.3-1.6-1.2c-2.3,0.1-4.3,0.7-6.1,2.1
			c-1.2,1-2.1,2.3-1.5,3.9c0.6,1.7,2.1,2.2,3.8,2.2C158,16.9,160.7,13.6,159.9,10z"/>
	</g>
</g>
<g id="designed_by_freepik">
</g>
</svg>
