<?xml version="1.0" encoding="utf-8"?>
<!-- Generator: Adobe Illustrator 21.0.0, SVG Export Plug-In . SVG Version: 6.00 Build 0)  -->
<svg version="1.1" id="Layer_1" xmlns="http://www.w3.org/2000/svg" xmlns:xlink="http://www.w3.org/1999/xlink" x="0px" y="0px"
	 viewBox="0 0 311.8 311.8" style="enable-background:new 0 0 311.8 311.8;" xml:space="preserve">
<style type="text/css">
	.st0{fill:#49572E;}
</style>
<g>
	<g>
		<g>
			<path class="st0" d="M203.7,266.1L89.5,154.2L201.9,45.7l22.3,0l40.7,0h0l1.5,0c0,0-41.1-46.3-110.2-45.7
				C87.2,0.6,46.1,45.7,46.1,45.7l32.3,0v60.7l60.7-60.7l34.4,0L73.3,142c-6.4,6.2-6.5,16.5-0.2,22.8l101.4,101.4l-35.4,0
				l-60.7-60.7v60.7l-32.3,0c0,0,41.1,46.3,110.2,45.7c69.1-0.6,110.2-45.7,110.2-45.7l-42.3,0L203.7,266.1z"/>
			<path class="st0" d="M0.4,155.9C1,225.1,46.1,266.1,46.1,266.1l0-220.4C46.1,45.7-0.2,86.8,0.4,155.9z"/>
		</g>
		<path class="st0" d="M273.1,154.3c10.5-10.5,27.5-10.5,38,0l0.3,0.3l0,0c-10.5,10.5-27.5,10.5-38,0L273.1,154.3L273.1,154.3z"/>
		<path class="st0" d="M264.9,186.2c11.1,0,20.1,9,20.1,20.1v0.4l0,0c-11.1,0-20.1-9-20.1-20.1V186.2L264.9,186.2z"/>
		<path class="st0" d="M264.6,122.6c0-11.1,9-20.1,20.1-20.1h0.4l0,0c0,11.1-9,20.1-20.1,20.1H264.6L264.6,122.6z"/>
		<path class="st0" d="M192.7,154.8c-10.5,10.5-27.5,10.5-38,0l-0.3-0.3l0,0c10.5-10.5,27.5-10.5,38,0L192.7,154.8L192.7,154.8z"/>
		<path class="st0" d="M233.2,194.7c10.5,10.5,10.5,27.5,0,38l-0.3,0.3l0,0c-10.5-10.5-10.5-27.5,0-38L233.2,194.7L233.2,194.7z"/>
		<path class="st0" d="M232.6,114.4c-10.5-10.5-10.5-27.5,0-38L233,76l0,0c10.5,10.5,10.5,27.5,0,38L232.6,114.4L232.6,114.4z"/>
		<path class="st0" d="M200.9,122.9c-11.1,0-20.1-9-20.1-20.1v-0.4l0,0c11.1,0,20.1,9,20.1,20.1V122.9L200.9,122.9z"/>
		<path class="st0" d="M201.2,186.5c0,11.1-9,20.1-20.1,20.1h-0.4l0,0c0-11.1,9-20.1,20.1-20.1H201.2L201.2,186.5z"/>
		<ellipse class="st0" cx="233.7" cy="154.5" rx="11.6" ry="11.6"/>
	</g>
</g>
</svg>
